<svg width="32" height="32" viewBox="0 0 32 32" fill="none" xmlns="http://www.w3.org/2000/svg">
<path d="M26.2919 24.5209L17.7668 16.0005L26.2919 7.54289C26.7191 7.04808 26.696 6.30552 26.2388 5.83863C25.7816 5.37174 25.0445 5.33793 24.547 5.76102L15.997 14.1559L7.59662 5.69827C7.11049 5.21174 6.32539 5.21174 5.83926 5.69827C5.60331 5.93389 5.47059 6.25462 5.47059 6.58921C5.47059 6.9238 5.60331 7.24453 5.83926 7.48015L14.2272 15.9252L5.70216 24.3703C5.46621 24.6059 5.3335 24.9267 5.3335 25.2613C5.3335 25.5958 5.46621 25.9166 5.70216 26.1522C5.93737 26.3871 6.25579 26.518 6.58707 26.5161C6.91228 26.5181 7.22537 26.392 7.45952 26.1647L15.997 17.6946L24.547 26.3028C24.7822 26.5377 25.1006 26.6686 25.4319 26.6667C25.7589 26.6653 26.0722 26.5346 26.3043 26.3028C26.5387 26.0655 26.6691 25.7438 26.6668 25.4092C26.6645 25.0746 26.5295 24.7548 26.2919 24.5209Z" fill="#4ABE99"/>
</svg>
